<svg width="40" height="40" viewBox="0 0 40 40" fill="none" xmlns="http://www.w3.org/2000/svg">
<rect width="40" height="40" rx="20" fill="#080708"/>
<path d="M15.3334 24.1666C15.46 24.1666 15.5867 24.12 15.6867 24.02L25.02 14.6866C25.2134 14.4933 25.2134 14.1733 25.02 13.98C24.8267 13.7866 24.5067 13.7866 24.3134 13.98L14.98 23.3133C14.7867 23.5066 14.7867 23.8266 14.98 24.02C15.08 24.12 15.2067 24.1666 15.3334 24.1666Z" fill="white"/>
<path d="M24.6667 21.6799C24.94 21.6799 25.1667 21.4533 25.1667 21.1799V14.3333C25.1667 14.0599 24.94 13.8333 24.6667 13.8333H17.82C17.5467 13.8333 17.32 14.0599 17.32 14.3333C17.32 14.6066 17.5467 14.8333 17.82 14.8333H24.1667V21.1799C24.1667 21.4533 24.3934 21.6799 24.6667 21.6799Z" fill="white"/>
</svg>
