<svg width="76" height="76" viewBox="0 0 76 76" fill="none" xmlns="http://www.w3.org/2000/svg">
<rect width="76" height="76" rx="38" fill="#E8F8EC"/>
<path d="M48.237 40.575L46.8245 38.225C46.512 37.7125 46.237 36.725 46.237 36.125V33.7875C46.237 29.25 42.5495 25.5625 38.0245 25.5625C33.487 25.575 29.7995 29.25 29.7995 33.7875V36.1125C29.7995 36.7125 29.5245 37.7 29.2245 38.2125L27.812 40.5625C27.2745 41.475 27.1495 42.5125 27.487 43.4125C27.8245 44.325 28.587 45.05 29.587 45.375C30.937 45.825 32.2995 46.15 33.687 46.3875C33.8245 46.4125 33.962 46.425 34.0995 46.45C34.2745 46.475 34.462 46.5 34.6495 46.525C34.9745 46.575 35.2995 46.6125 35.637 46.6375C36.4245 46.7125 37.2245 46.75 38.0245 46.75C38.812 46.75 39.5995 46.7125 40.3745 46.6375C40.662 46.6125 40.9495 46.5875 41.2245 46.55C41.4495 46.525 41.6745 46.5 41.8995 46.4625C42.037 46.45 42.1745 46.425 42.312 46.4C43.712 46.175 45.0995 45.825 46.4495 45.375C47.412 45.05 48.1495 44.325 48.4995 43.4C48.8495 42.4625 48.7495 41.4375 48.237 40.575ZM38.937 35.5C38.937 36.025 38.512 36.45 37.987 36.45C37.462 36.45 37.037 36.025 37.037 35.5V31.625C37.037 31.1 37.462 30.675 37.987 30.675C38.512 30.675 38.937 31.1 38.937 31.625V35.5Z" fill="#34A853"/>
<path d="M41.5371 48.0125C41.0121 49.4625 39.6246 50.5 37.9996 50.5C37.0121 50.5 36.0371 50.1 35.3496 49.3875C34.9496 49.0125 34.6496 48.5125 34.4746 48C34.6371 48.025 34.7996 48.0375 34.9746 48.0625C35.2621 48.1 35.5621 48.1375 35.8621 48.1625C36.5746 48.225 37.2996 48.2625 38.0246 48.2625C38.7371 48.2625 39.4496 48.225 40.1496 48.1625C40.4121 48.1375 40.6746 48.125 40.9246 48.0875C41.1246 48.0625 41.3246 48.0375 41.5371 48.0125Z" fill="#34A853"/>
</svg>
