<svg width="117" height="39" viewBox="0 0 117 39" fill="none" xmlns="http://www.w3.org/2000/svg">
<path d="M57.3864 16.1899H45.7796V28.2266H59.4498C60.1806 28.2266 60.7394 28.7854 60.7394 29.5162C60.7394 30.247 60.1806 30.8059 59.4498 30.8059H44.275C43.5442 30.8059 42.9853 30.247 42.9853 29.5162V2.13275C42.9853 1.57391 43.2862 1.10104 43.7161 0.886095C43.9311 0.757129 44.146 0.714142 44.3609 0.714142H59.1059C59.8367 0.714142 60.3955 1.27299 60.3955 2.00379C60.3955 2.73459 59.8367 3.29343 59.1059 3.29343H45.7796V13.6106H57.3864C58.1172 13.6106 58.676 14.1694 58.676 14.9002C58.676 15.631 58.1172 16.1899 57.3864 16.1899Z" fill="white"/>
<path d="M75.8649 22.7671V20.1018C71.738 22.5951 63.6563 20.9186 63.6563 25.2604C63.6563 26.765 65.1179 28.3126 68.299 28.3126C72.8128 28.3126 75.8649 25.5613 75.8649 22.7671ZM62.8825 13.0518C65.2038 10.4295 67.6112 9.13983 70.5774 9.13983C74.8762 9.13983 78.3582 12.321 78.3582 16.2329V29.5592C78.3582 30.247 77.7994 30.8059 77.1116 30.8059C76.4238 30.8059 75.8649 30.247 75.8649 29.5592V28.0976C73.9734 29.8172 71.2222 30.8059 68.299 30.8059C64.516 30.8059 61.1629 28.8284 61.1629 25.2604C61.1629 16.5768 75.7359 21.3055 75.7359 15.717C75.7359 13.5676 73.2856 11.6331 70.5774 11.6331C68.4709 11.6331 66.7514 12.4929 64.774 14.6853C64.516 14.9862 64.1721 15.1152 63.8282 15.1152C63.5273 15.1152 63.2264 15.0292 63.0114 14.8143C62.4956 14.3414 62.4526 13.5676 62.8825 13.0518Z" fill="white"/>
<path d="M96.0119 15.2871C96.0979 16.0179 95.5391 16.6198 94.8512 16.7058C94.0775 16.7058 93.5186 16.1899 93.4326 15.5451C93.2177 12.8798 91.4122 11.1603 88.1021 11.1603C84.749 11.1603 83.4594 12.8798 83.4164 14.2554C83.5024 19.0701 95.926 17.9094 95.926 25.4324C95.926 28.5705 92.8308 31.0638 88.8759 31.0638C85.007 31.0638 81.4389 28.8284 79.8054 25.4324C79.5045 24.7875 79.7624 24.0137 80.4072 23.7128C80.5792 23.6269 80.7941 23.5839 80.9661 23.5839C81.4389 23.5839 81.9118 23.8418 82.1267 24.3147C83.3304 26.808 85.9957 28.4845 88.8759 28.4845C91.971 28.4845 93.3467 26.636 93.3467 25.4324C93.3467 20.1878 81.009 21.4774 80.8371 14.2124C80.8371 14.1694 80.8371 14.1265 80.8371 14.0835C81.009 10.8594 83.9752 8.58098 88.1021 8.58098C92.5729 8.58098 95.625 11.1603 96.0119 15.2871Z" fill="white"/>
<path d="M100.584 15.2871C100.584 18.9411 103.164 21.4345 106.904 21.4345C110.773 21.4345 113.008 19.7149 113.008 16.7487C113.008 13.5676 110.515 11.2892 107.033 11.2892C104.109 11.2892 101.831 12.8798 100.584 15.2871ZM99.5098 19.8009C99.5098 24.7016 102.691 28.5705 107.763 28.5705C111.632 28.5705 114.298 26.0772 114.298 22.4662C114.298 21.5204 114.771 20.9186 115.587 20.9186C116.361 20.9186 116.791 21.4774 116.791 22.4662C116.791 27.3238 112.836 30.9348 107.506 30.9348C101.057 30.9348 96.9305 25.9482 96.9305 19.9299C96.9305 13.9115 100.799 8.92489 106.818 8.92489C111.761 8.92489 115.501 12.278 115.501 16.7487C115.501 21.0046 111.933 23.8848 106.646 23.8848C103.723 23.8848 101.014 22.2082 99.5098 19.8009Z" fill="white"/>
<path d="M3.43617 17.3506C3.43617 21.9503 7.09017 25.6043 11.389 25.6043C15.6878 25.6043 19.3418 21.9503 19.3418 17.3506C19.3418 12.7508 15.6878 9.13983 11.389 9.13983C7.09017 9.13983 3.43617 12.7508 3.43617 17.3506ZM19.3848 25.6043V24.2717C17.4503 26.5501 14.6131 27.9687 11.389 27.9687C5.49961 27.9687 0.856883 23.197 0.856883 17.3506C0.856883 11.5472 5.49961 6.77548 11.389 6.77548C14.6131 6.77548 17.4503 8.19409 19.3848 10.4725V8.36604C19.3848 7.67823 19.9436 7.11938 20.6315 7.11938C21.3193 7.11938 21.8781 7.67823 21.8781 8.36604V16.4048C21.9211 16.7058 21.9211 17.0067 21.9211 17.3506C21.9211 17.6945 21.9211 17.9954 21.8781 18.3393V25.6043C21.8781 32.6974 17.4073 38.2858 10.8731 38.2858C6.66029 38.2858 2.14653 35.3196 0.126083 31.2788C-0.174834 30.6769 0.083095 29.9031 0.68493 29.6022C0.856883 29.5162 1.02884 29.4732 1.24378 29.4732C1.67366 29.4732 2.14653 29.7312 2.36147 30.1611C4.03801 33.4282 7.69201 35.7925 10.8731 35.7925C15.6878 35.7925 19.3848 31.7516 19.3848 25.6043Z" fill="white"/>
<path d="M25.0163 7.85018L32.3672 24.4866L39.6322 7.8072C39.8042 7.37731 40.2341 7.11938 40.7069 7.11938C40.8789 7.11938 41.0079 7.11938 41.1798 7.20536C41.7817 7.46329 42.0396 8.1511 41.7817 8.75294L33.4419 27.8827C33.227 28.3556 32.8401 28.6565 32.3242 28.6565C31.8084 28.6565 31.3355 28.3985 31.1206 27.9257L22.6949 8.8819C22.437 8.23708 22.7379 7.50628 23.3397 7.20536C23.5117 7.16237 23.6406 7.11938 23.8126 7.11938C24.3284 7.11938 24.8013 7.37731 25.0163 7.85018Z" fill="white"/>
<path d="M20.0511 3.27194C20.0511 2.47666 20.2446 1.91781 20.6315 1.5954C21.0183 1.27299 21.4805 1.11178 22.0178 1.11178C22.5767 1.11178 23.0495 1.27299 23.4364 1.5954C23.8448 1.91781 24.049 2.47666 24.049 3.27194C24.049 4.04573 23.8448 4.60458 23.4364 4.94848C23.0495 5.29239 22.5767 5.46434 22.0178 5.46434C21.4805 5.46434 21.0183 5.29239 20.6315 4.94848C20.2446 4.60458 20.0511 4.04573 20.0511 3.27194Z" fill="white"/>
</svg>
