<svg width="161" height="162" viewBox="0 0 161 162" fill="none" xmlns="http://www.w3.org/2000/svg">
<rect y="0.5" width="161" height="161" rx="80.5" fill="#FFE3E1"/>
<path d="M115.921 46.5791C111.365 41.8616 105.914 38.0987 99.8881 35.5101C93.862 32.9214 87.3806 31.5589 80.8222 31.5019C74.2639 31.4449 67.7598 32.6946 61.6896 35.1781C55.6194 37.6617 50.1045 41.3292 45.4669 45.9669C40.8292 50.6045 37.1617 56.1194 34.6781 62.1896C32.1946 68.2598 30.9449 74.7639 31.0019 81.3222C31.0589 87.8806 32.4214 94.362 35.0101 100.388C37.5987 106.414 41.3616 111.865 46.0791 116.421C50.6355 121.138 56.0857 124.901 62.1119 127.49C68.138 130.079 74.6194 131.441 81.1778 131.498C87.7361 131.555 94.2402 130.305 100.31 127.822C106.381 125.338 111.895 121.671 116.533 117.033C121.171 112.395 124.838 106.881 127.322 100.81C129.805 94.7402 131.055 88.2361 130.998 81.6778C130.941 75.1194 129.579 68.638 126.99 62.6119C124.401 56.5857 120.638 51.1355 115.921 46.5791ZM111.261 51.2385C118.881 58.8624 123.345 69.0804 123.76 79.8514C124.175 90.6224 120.511 101.153 113.501 109.341L53.1588 48.9994C61.3465 41.9888 71.8777 38.3252 82.6486 38.7403C93.4196 39.1554 103.638 43.6187 111.261 51.2385ZM50.7385 111.761C43.1187 104.138 38.6554 93.9196 38.2403 83.1486C37.8252 72.3777 41.4888 61.8465 48.4994 53.6588L108.841 114.001C100.653 121.011 90.1224 124.675 79.3514 124.26C68.5804 123.845 58.3624 119.381 50.7385 111.761Z" fill="#FF0000"/>
</svg>
