<svg width="62" height="62" viewBox="0 0 62 62" fill="none" xmlns="http://www.w3.org/2000/svg">
<rect width="62" height="62" rx="31" fill="#FB8B24" fill-opacity="0.26"/>
<path d="M44.8268 36.5534L35.7601 20.2334C34.5418 18.0375 32.8559 16.8334 31.0001 16.8334C29.1443 16.8334 27.4584 18.0375 26.2401 20.2334L17.1734 36.5534C16.0259 38.6359 15.8984 40.6334 16.8193 42.2059C17.7401 43.7784 19.5534 44.6425 21.9334 44.6425H40.0668C42.4468 44.6425 44.2601 43.7784 45.1809 42.2059C46.1018 40.6334 45.9743 38.6217 44.8268 36.5534ZM29.9376 26.75C29.9376 26.1692 30.4193 25.6875 31.0001 25.6875C31.5809 25.6875 32.0626 26.1692 32.0626 26.75V33.8334C32.0626 34.4142 31.5809 34.8959 31.0001 34.8959C30.4193 34.8959 29.9376 34.4142 29.9376 33.8334V26.75ZM32.0059 39.0892C31.9351 39.1459 31.8643 39.2025 31.7934 39.2592C31.7084 39.3159 31.6234 39.3584 31.5384 39.3867C31.4534 39.4292 31.3684 39.4575 31.2693 39.4717C31.1843 39.4859 31.0851 39.5 31.0001 39.5C30.9151 39.5 30.8159 39.4859 30.7168 39.4717C30.6318 39.4575 30.5468 39.4292 30.4618 39.3867C30.3768 39.3584 30.2918 39.3159 30.2068 39.2592C30.1359 39.2025 30.0651 39.1459 29.9943 39.0892C29.7393 38.82 29.5834 38.4517 29.5834 38.0834C29.5834 37.715 29.7393 37.3467 29.9943 37.0775C30.0651 37.0209 30.1359 36.9642 30.2068 36.9075C30.2918 36.8509 30.3768 36.8084 30.4618 36.78C30.5468 36.7375 30.6318 36.7092 30.7168 36.695C30.9009 36.6525 31.0993 36.6525 31.2693 36.695C31.3684 36.7092 31.4534 36.7375 31.5384 36.78C31.6234 36.8084 31.7084 36.8509 31.7934 36.9075C31.8643 36.9642 31.9351 37.0209 32.0059 37.0775C32.2609 37.3467 32.4168 37.715 32.4168 38.0834C32.4168 38.4517 32.2609 38.82 32.0059 39.0892Z" fill="#FB8B24"/>
</svg>
